<svg width="8" height="14" viewBox="0 0 8 14" fill="none" xmlns="http://www.w3.org/2000/svg">
<path d="M-1.14441e-05 12.7313C-0.000476837 12.6328 0.0187435 12.5351 0.0565224 12.4441C0.0943012 12.3531 0.149877 12.2705 0.219989 12.2013L5.68999 6.73129L0.219989 1.26129C0.0875087 1.11912 0.0153852 0.93107 0.0188131 0.736769C0.0222411 0.542468 0.100954 0.357083 0.238367 0.21967C0.37578 0.0822568 0.561165 0.00354506 0.755466 0.000116847C0.949768 -0.00331137 1.13781 0.0688116 1.27999 0.201292L7.27999 6.20129C7.42044 6.34192 7.49933 6.53254 7.49933 6.73129C7.49933 6.93004 7.42044 7.12067 7.27999 7.26129L1.27999 13.2613C1.13936 13.4017 0.948739 13.4806 0.749989 13.4806C0.551238 13.4806 0.360614 13.4017 0.219989 13.2613C0.149877 13.192 0.0943012 13.1095 0.0565224 13.0185C0.0187435 12.9275 -0.000476837 12.8298 -1.14441e-05 12.7313Z" fill="white"/>
</svg>
