<svg width="30" height="29" viewBox="0 0 30 29" fill="none" xmlns="http://www.w3.org/2000/svg">
<path d="M17.3292 28.7888V14.9068C17.3292 10.9938 18.1056 7.79503 19.6584 5.31056C21.2733 2.76398 23.323 0.993791 25.8075 0L28.2298 5.86957C26.8012 6.42857 25.6832 7.39131 24.8758 8.75777C24.1304 10.0621 23.7578 12.0497 23.7578 14.7205H30V28.7888H17.3292ZM0 28.7888V14.9068C0 10.9938 0.776397 7.79503 2.32919 5.31056C3.9441 2.76398 5.99379 0.993791 8.47826 0L10.9006 5.86957C9.47205 6.42857 8.35404 7.39131 7.54658 8.75777C6.80124 10.0621 6.42857 12.0497 6.42857 14.7205H12.6708V28.7888H0Z" fill="#0F9D45"/>
</svg>
