<svg width="60" height="60" viewBox="0 0 60 60" fill="none" xmlns="http://www.w3.org/2000/svg">
<rect width="60" height="60" rx="12" fill="#8CC63F" fill-opacity="0.1"/>
<path d="M42.8549 34.5C43.3127 34.5 43.7083 34.6667 44.0416 35L46.6666 37.6667C46.9999 38 47.1666 38.3889 47.1666 38.8333C47.1666 39.2778 46.9999 39.6667 46.6666 40C46.3333 40.3333 45.9444 40.5 45.4999 40.5C45.0555 40.5 44.6666 40.3333 44.3333 40L41.6666 37.375C41.3333 37.0417 41.1666 36.6461 41.1666 36.1883C41.1666 35.7306 41.3333 35.3344 41.6666 35C41.9999 34.6656 42.396 34.4989 42.8549 34.5ZM43.8333 16.1883C43.8333 16.6461 43.6666 17.0417 43.3333 17.375L40.7083 20C40.3749 20.3333 39.9794 20.5 39.5216 20.5C39.0638 20.5 38.6677 20.3333 38.3333 20C37.9988 19.6667 37.8321 19.2711 37.8333 18.8133C37.8344 18.3556 38.001 17.9594 38.3333 17.625L40.9999 15C41.3333 14.6667 41.7221 14.5 42.1666 14.5C42.611 14.5 42.9999 14.6667 43.3333 15C43.6666 15.3333 43.8333 15.7289 43.8333 16.1867M17.8549 14.5C18.3127 14.5 18.7083 14.6667 19.0416 15L21.6666 17.6667C21.9999 18 22.1666 18.3889 22.1666 18.8333C22.1666 19.2778 21.9999 19.6667 21.6666 20C21.3333 20.3333 20.9377 20.5 20.4799 20.5C20.0221 20.5 19.626 20.3333 19.2916 20L16.6666 17.375C16.3333 17.0417 16.1666 16.6461 16.1666 16.1883C16.1666 15.7306 16.3333 15.3344 16.6666 15C16.9999 14.6656 17.396 14.4989 17.8549 14.5ZM18.8333 36.1883C18.8333 36.6461 18.6666 37.0417 18.3333 37.375L15.7083 40C15.3749 40.3333 14.9794 40.5 14.5216 40.5C14.0638 40.5 13.6677 40.3333 13.3333 40C12.9988 39.6667 12.8321 39.2711 12.8333 38.8133C12.8344 38.3556 13.001 37.9594 13.3333 37.625L15.9999 35C16.3333 34.6667 16.7221 34.5 17.1666 34.5C17.611 34.5 17.9999 34.6667 18.3333 35C18.6666 35.3333 18.8333 35.7295 18.8333 36.1883ZM24.7499 38.0417L29.9999 34.875L35.2499 38.0833L33.8749 32.0833L38.4999 28.0833L32.4166 27.5417L29.9999 21.875L27.5833 27.5L21.4999 28.0417L26.1249 32.0833L24.7499 38.0417ZM29.9999 38.7917L23.0833 42.9583C22.7777 43.1528 22.4583 43.2361 22.1249 43.2083C21.7916 43.1806 21.4999 43.0695 21.2499 42.875C20.9999 42.6806 20.8055 42.4378 20.6666 42.1467C20.5277 41.8556 20.4999 41.5289 20.5833 41.1667L22.4166 33.2917L16.2916 28C16.0138 27.75 15.8405 27.465 15.7716 27.145C15.7027 26.825 15.7233 26.5128 15.8333 26.2083C15.9433 25.9039 16.1099 25.6539 16.3333 25.4583C16.5566 25.2628 16.8621 25.1378 17.2499 25.0833L25.3333 24.375L28.4583 16.9583C28.5971 16.625 28.8127 16.375 29.1049 16.2083C29.3971 16.0417 29.6955 15.9583 29.9999 15.9583C30.3044 15.9583 30.6027 16.0417 30.8949 16.2083C31.1871 16.375 31.4027 16.625 31.5416 16.9583L34.6666 24.375L42.7499 25.0833C43.1388 25.1389 43.4444 25.2639 43.6666 25.4583C43.8888 25.6528 44.0555 25.9028 44.1666 26.2083C44.2777 26.5139 44.2988 26.8267 44.2299 27.1467C44.161 27.4667 43.9871 27.7511 43.7083 28L37.5833 33.2917L39.4166 41.1667C39.4999 41.5278 39.4721 41.8544 39.3333 42.1467C39.1944 42.4389 38.9999 42.6817 38.7499 42.875C38.4999 43.0683 38.2083 43.1794 37.8749 43.2083C37.5416 43.2372 37.2221 43.1539 36.9166 42.9583L29.9999 38.7917Z" fill="#8CC63F"/>
</svg>
