<svg width="31" height="32" viewBox="0 0 31 32" fill="none" xmlns="http://www.w3.org/2000/svg">
<path d="M15.3333 16.3333V20.3333M15.3333 20.3333L12 23M15.3333 20.3333L18.6666 23M7.33329 23L4.66663 24.3333L1.99996 23V19.6667L4.66663 18.3333L7.33329 19.6667V23ZM8.66663 31V27L4.66663 25.6667L0.666626 27V31H8.66663ZM28.6666 23L26 24.3333L23.3333 23V19.6667L26 18.3333L28.6666 19.6667V23ZM30 31V27L26 25.6667L22 27V31H30ZM18 5.66667L15.3333 7L12.6666 5.66667V2.33333L15.3333 1L18 2.33333V5.66667ZM19.3333 13.6667V9.66667L15.3333 8.33333L11.3333 9.66667V13.6667H19.3333Z" stroke="#0F9D45" stroke-width="2" stroke-miterlimit="10" stroke-linecap="round" stroke-linejoin="round"/>
</svg>
