<svg width="60" height="60" viewBox="0 0 60 60" fill="none" xmlns="http://www.w3.org/2000/svg">
<rect width="60" height="60" rx="12" fill="#8CC63F" fill-opacity="0.1"/>
<path d="M49.175 39.1717H45.8417V42.505H49.175V39.1717ZM40.84 45.84H37.5067V49.1733H40.84V45.84ZM44.1733 39.1733V40.84H40.84V39.1733H39.1733V34.1717H40.84V37.505H42.5067V39.1717L44.1733 39.1733ZM37.505 42.5067V44.1733H34.1717V42.5067H32.505V34.1717H34.1717V40.8383H35.8383V42.5067H37.505ZM29.17 34.1717V42.5067H27.5033V44.1733H24.17V42.5067H25.8367V40.84H27.5033V34.1717H29.17ZM24.17 45.84H20.8367V49.1733H24.17V45.84ZM22.5017 34.1717V39.1717H20.835V40.8383H17.5017V39.1717H19.1683V37.505H20.835V34.1717H22.5017ZM47.5083 22.5017V20.835H45.8417V19.1683H42.5083V15.835H40.84V14.1683H39.1733V12.5H30.8367V14.1667H29.17V15.8333H27.5033V17.5H25.8367V15.8333H20.8367V17.5H19.1667V19.1667H17.5V22.5017H14.1667V24.1683H12.5V29.17H14.1667V30.8367H15.8333V32.5033H45.8417V30.8367H47.5083V29.17H49.175V22.5033L47.5083 22.5017ZM34.1717 27.5033V25.8367H32.505V22.5033H34.1717V24.17H35.8383V19.1667H37.505V24.1667H39.1717V22.5H40.8383V25.8333H39.1717V27.5017H37.505V29.1683H35.8383V27.5017L34.1717 27.5033ZM27.5033 20.8367V22.5033H29.17V25.8367H27.5033V24.17H25.8367V29.17H24.17V24.17H22.5033V25.8367H20.8367V22.5033H22.5033V20.8367H24.17V19.1667H25.8367V20.8333L27.5033 20.8367ZM15.8333 39.1717H12.5V42.505H15.8333V39.1717Z" fill="#8CC63F"/>
</svg>
