<svg width="60" height="60" viewBox="0 0 60 60" fill="none" xmlns="http://www.w3.org/2000/svg">
<rect width="60" height="60" rx="12" fill="#8CC63F" fill-opacity="0.1"/>
<path d="M13.3333 33.3334C13.3333 33.7754 13.1577 34.1993 12.8452 34.5119C12.5326 34.8245 12.1087 35 11.6667 35C11.2246 35 10.8007 34.8245 10.4882 34.5119C10.1756 34.1993 10 33.7754 10 33.3334C10 32.8914 10.1756 32.4674 10.4882 32.1549C10.8007 31.8423 11.2246 31.6667 11.6667 31.6667C12.1087 31.6667 12.5326 31.8423 12.8452 32.1549C13.1577 32.4674 13.3333 32.8914 13.3333 33.3334ZM21.1983 27.1034C20.9302 26.8328 20.6112 26.618 20.2596 26.4714C19.9081 26.3248 19.5309 26.2493 19.15 26.2493C18.7691 26.2493 18.3919 26.3248 18.0404 26.4714C17.6888 26.618 17.3698 26.8328 17.1017 27.1034C16.557 27.6519 16.2513 28.3936 16.2513 29.1667C16.2513 29.9398 16.557 30.6815 17.1017 31.23C17.3698 31.5007 17.6888 31.7155 18.0404 31.862C18.3919 32.0086 18.7691 32.0841 19.15 32.0841C19.5309 32.0841 19.9081 32.0086 20.2596 31.862C20.6112 31.7155 20.9302 31.5007 21.1983 31.23C21.4338 31.002 21.7493 30.8755 22.0771 30.8779C22.4049 30.8803 22.7186 31.0113 22.9507 31.2427C23.1828 31.4742 23.3147 31.7875 23.318 32.1153C23.3213 32.443 23.1957 32.759 22.9683 32.995C22.468 33.4987 21.873 33.8984 21.2175 34.1712C20.562 34.444 19.8591 34.5844 19.1492 34.5844C18.4392 34.5844 17.7363 34.444 17.0808 34.1712C16.4254 33.8984 15.8303 33.4987 15.33 32.995C14.3181 31.9779 13.7501 30.6015 13.7501 29.1667C13.7501 27.732 14.3181 26.3556 15.33 25.3384C15.8303 24.8347 16.4254 24.435 17.0808 24.1622C17.7363 23.8895 18.4392 23.749 19.1492 23.749C19.8591 23.749 20.562 23.8895 21.2175 24.1622C21.873 24.435 22.468 24.8347 22.9683 25.3384C23.1957 25.5745 23.3213 25.8904 23.318 26.2181C23.3147 26.5459 23.1828 26.8592 22.9507 27.0907C22.7186 27.3221 22.4049 27.4531 22.0771 27.4555C21.7493 27.4579 21.4338 27.3314 21.1983 27.1034ZM24.1667 29.1667C24.1667 27.7301 24.7373 26.3524 25.7532 25.3366C26.769 24.3207 28.1467 23.75 29.5833 23.75C31.0199 23.75 32.3977 24.3207 33.4135 25.3366C34.4293 26.3524 35 27.7301 35 29.1667C35 30.6033 34.4293 31.9811 33.4135 32.9969C32.3977 34.0127 31.0199 34.5834 29.5833 34.5834C28.1467 34.5834 26.769 34.0127 25.7532 32.9969C24.7373 31.9811 24.1667 30.6033 24.1667 29.1667ZM29.5833 26.25C28.8098 26.25 28.0679 26.5573 27.5209 27.1043C26.974 27.6513 26.6667 28.3932 26.6667 29.1667C26.6667 29.9403 26.974 30.6821 27.5209 31.2291C28.0679 31.7761 28.8098 32.0834 29.5833 32.0834C30.3569 32.0834 31.0987 31.7761 31.6457 31.2291C32.1927 30.6821 32.5 29.9403 32.5 29.1667C32.5 28.3932 32.1927 27.6513 31.6457 27.1043C31.0987 26.5573 30.3569 26.25 29.5833 26.25ZM40 23.75C37.675 23.75 35.8333 25.6667 35.8333 27.9767V33.3334C35.8333 33.6649 35.965 33.9828 36.1994 34.2173C36.4339 34.4517 36.7518 34.5834 37.0833 34.5834C37.4149 34.5834 37.7328 34.4517 37.9672 34.2173C38.2016 33.9828 38.3333 33.6649 38.3333 33.3334V27.9767C38.3333 26.9984 39.1033 26.25 40 26.25C40.8967 26.25 41.6667 27 41.6667 27.9767V33.3334C41.6667 33.6649 41.7984 33.9828 42.0328 34.2173C42.2672 34.4517 42.5851 34.5834 42.9167 34.5834C43.2482 34.5834 43.5661 34.4517 43.8005 34.2173C44.035 33.9828 44.1667 33.6649 44.1667 33.3334V27.9767C44.1667 26.9984 44.9367 26.25 45.8333 26.25C46.73 26.25 47.5 27 47.5 27.9767V33.3334C47.5 33.6649 47.6317 33.9828 47.8661 34.2173C48.1005 34.4517 48.4185 34.5834 48.75 34.5834C49.0815 34.5834 49.3995 34.4517 49.6339 34.2173C49.8683 33.9828 50 33.6649 50 33.3334V27.9767C50 25.6667 48.1583 23.75 45.8333 23.75C44.69 23.75 43.665 24.2134 42.9167 24.9584C42.5339 24.575 42.0793 24.2709 41.5788 24.0635C41.0783 23.8562 40.5418 23.7496 40 23.75Z" fill="#8CC63F"/>
</svg>
