<svg width="60" height="60" viewBox="0 0 60 60" fill="none" xmlns="http://www.w3.org/2000/svg">
<rect width="60" height="60" rx="12" fill="#8CC63F" fill-opacity="0.1"/>
<path d="M41.6666 26.6668V13.3335H21.6666V33.3335H33.3333V21.6668H13.3333V41.6668H26.6666M33.3333 48.3335L43.3333 38.3335M44.9999 33.3335C44.3406 33.3335 43.6962 33.529 43.148 33.8953C42.5999 34.2615 42.1726 34.7821 41.9203 35.3912C41.668 36.0003 41.602 36.6705 41.7306 37.3171C41.8593 37.9637 42.1767 38.5577 42.6429 39.0239C43.1091 39.49 43.703 39.8075 44.3496 39.9361C44.9962 40.0647 45.6664 39.9987 46.2755 39.7464C46.8846 39.4941 47.4052 39.0669 47.7715 38.5187C48.1378 37.9706 48.3333 37.3261 48.3333 36.6668" stroke="#8CC63F" stroke-width="3.33333"/>
</svg>
