<svg width="60" height="60" viewBox="0 0 60 60" fill="none" xmlns="http://www.w3.org/2000/svg">
<rect width="60" height="60" rx="12" fill="#8CC63F" fill-opacity="0.1"/>
<g clip-path="url(#clip0_151_326)">
<path d="M48.1 10H36.6625V11.9125H34.7625V23.3375H11.9V25.2375H34.7625V30.9625H36.6625V38.575H11.9V25.2375H10V42.3875H11.9V40.4875H36.6625V42.3875H38.575V32.8625H48.1V30.9625H50V11.9125H48.1V10ZM40.475 11.9125H44.2875V13.8125H40.475V11.9125ZM48.1 29.05H36.6625V13.8125H38.575V15.725H46.1875V13.8125H48.1V29.05Z" fill="#8CC63F"/>
<path d="M47.1375 40.4749H49.05V42.375H47.1375V40.4749ZM45.2375 38.5625H47.1375V40.4749H45.2375V38.5625ZM45.2375 42.375H47.1375V44.2875H45.2375V42.375ZM43.325 36.6625H45.2375V38.5625H43.325V36.6625ZM43.325 44.2875H45.2375V46.1875H43.325V44.2875ZM41.425 34.7625H43.325V36.6625H41.425V34.7625ZM41.425 42.375H43.325V44.2875H41.425V42.375ZM39.525 32.85H41.425V34.7625H39.525V32.85ZM39.525 40.4749H41.425V42.375H39.525V40.4749ZM37.6125 30.95H39.525V32.85H37.6125V30.95ZM37.6125 38.5625H39.525V40.4749H37.6125V38.5625ZM35.7125 36.6625V34.7625H33.8125V36.6625H35.7V38.5625H37.6125V36.6625H35.7125Z" fill="#8CC63F"/>
<path d="M44.2874 21.4375H46.1874V23.3375H44.2874V21.4375ZM44.2874 17.625H46.1874V19.525H44.2874V17.625ZM40.4749 23.3375H44.2874V25.2375H40.4749V23.3375ZM38.5749 21.4375H40.4749V23.3375H38.5749V21.4375ZM38.5749 17.625H40.4749V19.525H38.5749V17.625ZM11.8999 42.3875V44.2875H19.5249V46.2H21.4249V44.2875H27.1374V46.2H29.0499V44.2875H36.6624V42.3875H11.8999ZM32.8624 30.9625H34.7624V32.8625H32.8624V30.9625ZM30.9499 32.8625H32.8624V34.7625H30.9499V32.8625ZM30.9499 29.05H32.8624V30.9625H30.9499V29.05ZM29.0499 34.7625H30.9499V36.675H29.0499V34.7625ZM29.0499 27.15H30.9499V29.05H29.0499V27.15ZM19.5249 48.1V46.2H17.6249V50H30.9499V46.2H29.0499V48.1H19.5249ZM25.2374 27.15H27.1374V30.9625H25.2374V27.15ZM23.3374 30.9625H25.2374V32.8625H23.3374V30.9625ZM21.4249 32.8625H23.3374V36.675H21.4249V32.8625ZM17.6249 34.7625H19.5249V36.675H17.6249V34.7625ZM17.6249 27.15H19.5249V29.05H17.6249V27.15ZM15.7124 32.8625H17.6249V34.7625H15.7124V32.8625ZM15.7124 29.05H17.6249V30.9625H15.7124V29.05ZM13.8124 30.9625H15.7124V32.8625H13.8124V30.9625Z" fill="#8CC63F"/>
<path d="M12.85 11.9H10.95V48.0875H12.85V50H35.7V48.0875H37.6125V42.375H35.7V46.1875H12.85V13.8H18.5625V15.7125H29.9874V13.8H35.7V25.2375H37.6125V11.9H35.7V10H12.85V11.9ZM24.275 11.9H28.0875V13.8H24.275V11.9ZM20.4625 11.9H22.375V13.8H20.4625V11.9Z" fill="#8CC63F"/>
<path d="M31.9 32.8499H33.8125V34.7624H31.9V32.8499ZM30 19.5249H33.8125V23.3249H30V19.5249ZM35.7 29.0374V30.9499H37.6125V29.0374H35.7125V27.1374H30V32.8499H31.9V29.0374H35.7ZM22.375 19.5249H26.1875V23.3249H22.375V19.5249ZM26.1875 40.4749V38.5624H28.0875V36.6624H26.1875V34.7624H24.2875V36.6624H22.375V38.5624H24.2875V40.4749H26.1875ZM22.375 27.1374H26.1875V30.9499H22.375V27.1374ZM14.7625 19.5249H18.575V23.3249H14.7625V19.5249ZM14.7625 27.1374H18.575V30.9499H14.7625V27.1374ZM14.7625 34.7624H18.575V38.5624H14.7625V34.7624Z" fill="#8CC63F"/>
</g>
<defs>
<clipPath id="clip0_151_326">
<rect width="40" height="40" fill="white" transform="translate(10 10)"/>
</clipPath>
</defs>
</svg>
