<svg width="60" height="60" viewBox="0 0 60 60" fill="none" xmlns="http://www.w3.org/2000/svg">
<rect width="60" height="60" rx="12" fill="#8CC63F" fill-opacity="0.1"/>
<path d="M23.3334 15C20.2392 15 17.2718 16.2292 15.0838 18.4171C12.8959 20.605 11.6667 23.5725 11.6667 26.6667C11.6667 29.7609 12.8959 32.7283 15.0838 34.9162C17.2718 37.1042 20.2392 38.3333 23.3334 38.3333H25.1167C24.9572 37.2279 24.9572 36.1054 25.1167 35H23.3334C21.1233 35 19.0037 34.122 17.4409 32.5592C15.8781 30.9964 15.0001 28.8768 15.0001 26.6667C15.0001 24.4565 15.8781 22.3369 17.4409 20.7741C19.0037 19.2113 21.1233 18.3333 23.3334 18.3333H36.6667C37.9026 18.3331 39.1231 18.6077 40.2397 19.1373C41.3563 19.667 42.3412 20.4383 43.1229 21.3955C43.9046 22.3528 44.4636 23.4719 44.7595 24.6718C45.0553 25.8717 45.0806 27.1224 44.8334 28.3333C45.8159 29.2957 46.6205 30.4242 47.2101 31.6667C48.0537 29.8882 48.4336 27.9252 48.3144 25.9605C48.1953 23.9957 47.581 22.093 46.5286 20.4296C45.4763 18.7661 44.0202 17.3959 42.2959 16.4466C40.5716 15.4972 38.6351 14.9996 36.6667 15H23.3334ZM36.6667 31.6667C35.3407 31.6667 34.0689 32.1934 33.1312 33.1311C32.1935 34.0688 31.6667 35.3406 31.6667 36.6667C31.6667 37.9927 32.1935 39.2645 33.1312 40.2022C34.0689 41.1399 35.3407 41.6667 36.6667 41.6667C37.9928 41.6667 39.2646 41.1399 40.2023 40.2022C41.14 39.2645 41.6667 37.9927 41.6667 36.6667C41.6667 35.3406 41.14 34.0688 40.2023 33.1311C39.2646 32.1934 37.9928 31.6667 36.6667 31.6667ZM28.3334 36.6667C28.3337 35.3674 28.6379 34.0861 29.2215 32.9253C29.8052 31.7644 30.6522 30.7561 31.6949 29.981C32.7377 29.2058 33.9472 28.6851 35.227 28.4607C36.5068 28.2362 37.8213 28.3141 39.0656 28.6881C40.3099 29.0621 41.4496 29.7219 42.3935 30.6148C43.3374 31.5077 44.0594 32.6089 44.5019 33.8306C44.9444 35.0522 45.0951 36.3604 44.942 37.6507C44.7889 38.9409 44.3362 40.1775 43.6201 41.2617L47.8451 45.4883L45.4884 47.845L41.2617 43.62C40.0057 44.4502 38.5481 44.9246 37.0441 44.9928C35.54 45.061 34.0455 44.7203 32.7195 44.0072C31.3935 43.294 30.2854 42.2349 29.5131 40.9424C28.7409 39.6499 28.3332 38.1723 28.3334 36.6667Z" fill="#8CC63F"/>
</svg>
