<svg width="32" height="24" viewBox="0 0 32 24" fill="none" xmlns="http://www.w3.org/2000/svg">
<path d="M1.00024 2.03564L6.0151 4.73279L10.4951 3.96022C11.241 3.83115 12.0062 3.86983 12.7353 4.07344C13.4643 4.27706 14.1389 4.64049 14.71 5.13736M25.5351 16.2002L18.4448 21.2379C17.6836 21.7787 16.775 22.0734 15.8413 22.0824C14.9075 22.0914 13.9935 21.8143 13.222 21.2882L1.00024 12.9568" stroke="#0F9D45" stroke-width="2" stroke-linecap="round" stroke-linejoin="round"/>
<path d="M30.3808 12.904L25.3636 16.3326L17.5785 10.0469L14.7145 12.1291C14.1539 12.5361 13.4573 12.7097 12.7713 12.6134C12.0854 12.517 11.4635 12.1582 11.0368 11.6126C10.6123 11.0672 10.4155 10.3787 10.4875 9.69135C10.5595 9.00403 10.8948 8.37126 11.4231 7.92572L14.4059 5.41829C15.1129 4.82313 15.933 4.37703 16.8168 4.10679C17.7005 3.83655 18.6298 3.74775 19.5488 3.84571L24.1956 4.344L30.3808 1" stroke="#0F9D45" stroke-width="2" stroke-linecap="round" stroke-linejoin="round"/>
<path d="M17.5785 10.0629C19.4528 11.7315 22.1088 10.8789 23.0962 9.5166" stroke="#0F9D45" stroke-width="2" stroke-linecap="round" stroke-linejoin="round"/>
</svg>
