<svg width="26" height="27" viewBox="0 0 26 27" fill="none" xmlns="http://www.w3.org/2000/svg">
<path d="M10.4667 15.6667L10.6 16.7333C10.6222 16.9111 10.6947 17.0556 10.8173 17.1667C10.94 17.2778 11.0898 17.3333 11.2667 17.3333H12.7333C12.9111 17.3333 13.0613 17.2778 13.184 17.1667C13.3067 17.0556 13.3787 16.9111 13.4 16.7333L13.5333 15.6667C13.7111 15.6 13.8724 15.5222 14.0173 15.4333C14.1622 15.3444 14.2898 15.2444 14.4 15.1333L15.4 15.5667C15.5556 15.6333 15.7111 15.6444 15.8667 15.6C16.0222 15.5556 16.1444 15.4556 16.2333 15.3L16.9667 14.0333C17.0556 13.8778 17.0836 13.7222 17.0507 13.5667C17.0178 13.4111 16.9342 13.2778 16.8 13.1667L15.9333 12.5333C15.9778 12.3556 16 12.1778 16 12C16 11.8222 15.9778 11.6444 15.9333 11.4667L16.8 10.8333C16.9333 10.7222 17.0169 10.5889 17.0507 10.4333C17.0844 10.2778 17.0564 10.1222 16.9667 9.96667L16.2333 8.7C16.1444 8.54444 16.0222 8.44444 15.8667 8.4C15.7111 8.35556 15.5556 8.36667 15.4 8.43333L14.4 8.86667C14.2889 8.75556 14.1609 8.65556 14.016 8.56667C13.8711 8.47778 13.7102 8.4 13.5333 8.33333L13.4 7.26667C13.3778 7.08889 13.3058 6.94444 13.184 6.83333C13.0622 6.72222 12.912 6.66667 12.7333 6.66667H11.2667C11.0889 6.66667 10.9391 6.72222 10.8173 6.83333C10.6956 6.94444 10.6231 7.08889 10.6 7.26667L10.4667 8.33333C10.2889 8.4 10.128 8.47778 9.984 8.56667C9.84 8.65556 9.712 8.75556 9.6 8.86667L8.6 8.43333C8.44444 8.36667 8.28889 8.35556 8.13333 8.4C7.97778 8.44444 7.85556 8.54444 7.76667 8.7L7.03333 9.96667C6.94444 10.1222 6.91689 10.2778 6.95067 10.4333C6.98445 10.5889 7.06756 10.7222 7.2 10.8333L8.06667 11.4667C8.02222 11.6444 8 11.8222 8 12C8 12.1778 8.02222 12.3556 8.06667 12.5333L7.2 13.1667C7.06667 13.2778 6.98356 13.4111 6.95067 13.5667C6.91778 13.7222 6.94533 13.8778 7.03333 14.0333L7.76667 15.3C7.85556 15.4556 7.97778 15.5556 8.13333 15.6C8.28889 15.6444 8.44444 15.6333 8.6 15.5667L9.6 15.1333C9.71111 15.2444 9.83911 15.3444 9.984 15.4333C10.1289 15.5222 10.2898 15.6 10.4667 15.6667ZM10.584 13.4173C10.1947 13.028 10 12.5556 10 12C10 11.4444 10.1947 10.9724 10.584 10.584C10.9733 10.1956 11.4453 10.0009 12 10C12.5547 9.99911 13.0271 10.1938 13.4173 10.584C13.8076 10.9742 14.0018 11.4462 14 12C13.9982 12.5538 13.804 13.0262 13.4173 13.4173C13.0307 13.8084 12.5582 14.0027 12 14C11.4418 13.9973 10.9698 13.8031 10.584 13.4173ZM4 20.9333C2.73333 19.7778 1.75022 18.428 1.05067 16.884C0.351111 15.34 0.000888889 13.712 0 12C0 8.66667 1.16667 5.83333 3.5 3.5C5.83333 1.16667 8.66667 0 12 0C14.7778 0 17.2391 0.816889 19.384 2.45067C21.5289 4.08444 22.9231 6.212 23.5667 8.83333L25.3 15.6667C25.4111 16.0889 25.3333 16.4724 25.0667 16.8173C24.8 17.1622 24.4444 17.3342 24 17.3333H21.3333V21.3333C21.3333 22.0667 21.0724 22.6947 20.5507 23.2173C20.0289 23.74 19.4009 24.0009 18.6667 24H16V25.3333C16 25.7111 15.872 26.028 15.616 26.284C15.36 26.54 15.0436 26.6676 14.6667 26.6667C14.2898 26.6658 13.9733 26.5378 13.7173 26.2827C13.4613 26.0276 13.3333 25.7111 13.3333 25.3333V22.6667C13.3333 22.2889 13.4613 21.9724 13.7173 21.7173C13.9733 21.4622 14.2898 21.3342 14.6667 21.3333H18.6667V16C18.6667 15.6222 18.7947 15.3058 19.0507 15.0507C19.3067 14.7956 19.6231 14.6676 20 14.6667H22.2667L21 9.5C20.4889 7.47778 19.4 5.83333 17.7333 4.56667C16.0667 3.3 14.1556 2.66667 12 2.66667C9.42222 2.66667 7.22222 3.56667 5.4 5.36667C3.57778 7.16667 2.66667 9.35556 2.66667 11.9333C2.66667 13.2667 2.93911 14.5333 3.484 15.7333C4.02889 16.9333 4.80089 18 5.8 18.9333L6.66667 19.7333V25.3333C6.66667 25.7111 6.53867 26.028 6.28267 26.284C6.02667 26.54 5.71022 26.6676 5.33333 26.6667C4.95644 26.6658 4.64 26.5378 4.384 26.2827C4.128 26.0276 4 25.7111 4 25.3333V20.9333Z" fill="#0F9D45"/>
</svg>
