<svg width="60" height="60" viewBox="0 0 60 60" fill="none" xmlns="http://www.w3.org/2000/svg">
<rect width="60" height="60" rx="12" fill="#8CC63F" fill-opacity="0.1"/>
<g clip-path="url(#clip0_151_300)">
<path d="M11.9 49.0501H48.0875V47.1375H50V41.425H48.0875V45.2376H11.9V41.425H10V47.1375H11.9V49.0501Z" fill="#8CC63F"/>
<path d="M46.1874 37.625H48.0874V41.4249H46.1874V37.625ZM44.2874 33.8125V35.7125H40.4749V37.625H46.1874V33.8125H44.2874ZM44.2874 28.1H46.1874V30H44.2874V28.1ZM46.1874 22.375V24.2875H44.2874V26.1875H48.0874V20.475H44.2874V22.375H46.1874ZM44.2874 16.6625H46.1874V18.575H44.2874V16.6625ZM42.3749 30H44.2874V31.9H42.3749V30ZM42.3749 26.1875H44.2874V28.1H42.3749V26.1875ZM42.3749 18.575H44.2874V20.475H42.3749V18.575ZM42.3749 14.7625H44.2874V16.6625H42.3749V14.7625ZM40.4749 31.9H42.3749V33.8125H40.4749V31.9ZM40.4749 12.8625H42.3749V14.7625H40.4749V12.8625ZM38.5624 30H40.4749V31.9H38.5624V30ZM38.5624 14.7625H40.4749V16.6625H38.5624V14.7625ZM36.6624 33.8125H34.7624V31.9H32.8499V35.7125H38.5624V31.9H36.6624V33.8125ZM38.5624 18.575H32.8499V20.475H30.9499V26.1875H32.8499V28.1H38.5624V26.1875H40.4749V20.475H38.5624V18.575ZM38.5624 24.2875H36.6624V26.1875H34.7624V24.2875H32.8499V22.375H34.7624V20.475H36.6624V22.375H38.5624V24.2875ZM34.7624 12.8625H36.6624V14.7625H38.5624V10.95H32.8499V14.7625H34.7624V12.8625ZM30.9499 30H32.8499V31.9H30.9499V30ZM30.9499 14.7625H32.8499V16.6625H30.9499V14.7625ZM27.1374 41.4249H32.8499V43.3375H27.1374V41.4249ZM29.0499 31.9H30.9499V33.8125H29.0499V31.9ZM29.0499 12.8625H30.9499V14.7625H29.0499V12.8625ZM27.1374 30H29.0499V31.9H27.1374V30ZM27.1374 26.1875H29.0499V28.1H27.1374V26.1875ZM27.1374 18.575H29.0499V20.475H27.1374V18.575ZM27.1374 14.7625H29.0499V16.6625H27.1374V14.7625ZM25.2374 28.1H27.1374V30H25.2374V28.1ZM25.2374 24.2875V22.375H27.1374V20.475H23.3249V26.1875H27.1374V24.2875H25.2374ZM25.2374 16.6625H27.1374V18.575H25.2374V16.6625ZM15.7124 14.7625H23.3249V16.6625H15.7124V14.7625ZM23.3249 37.625V35.7125H15.7124V16.6625H13.8124V37.625H23.3249ZM11.8999 37.625H13.8124V41.4249H11.8999V37.625Z" fill="#8CC63F"/>
</g>
<defs>
<clipPath id="clip0_151_300">
<rect width="40" height="40" fill="white" transform="translate(10 10)"/>
</clipPath>
</defs>
</svg>
